<?xml version="1.0" standalone="no"?>
<!DOCTYPE svg PUBLIC "-//W3C//DTD SVG 1.1//EN" "http://www.w3.org/Graphics/SVG/1.1/DTD/svg11.dtd" >
<svg>
<metadata>
Created by FontForge 20120731 at Thu Oct 17 02:32:55 2019
 By www
</metadata>
<defs>
<font id="fl-icons" horiz-adv-x="1024" >
  <font-face 
    font-family="fl-icons"
    font-weight="400"
    font-stretch="normal"
    units-per-em="1024"
    panose-1="0 0 0 0 0 0 0 0 0 0"
    ascent="960"
    descent="-64"
    bbox="-1 -73 1317 960"
    underline-thickness="0"
    underline-position="0"
    unicode-range="U+0001-FFFD"
  />
<missing-glyph 
 />
    <glyph glyph-name=".notdef" unicode="&#xfffd;" 
 />
    <glyph glyph-name="glyph1" horiz-adv-x="0" 
d="M0 0v0v0v0z" />
    <glyph glyph-name="glyph1" horiz-adv-x="0" 
d="M0 0v0v0v0z" />
    <glyph glyph-name="nonmarkingreturn" horiz-adv-x="341" 
 />
    <glyph glyph-name="uni0001" horiz-adv-x="0" 
d="M0 0v0v0v0z" />
    <glyph glyph-name="space" unicode=" " horiz-adv-x="512" 
d="M0 0v0v0v0z" />
    <glyph glyph-name="uniE000" unicode="&#xe000;" 
d="M512 0q-15 0 -25 10l-357 344l-15 15t-32 38q-22 27 -39 55q-17 29 -31 69q-13 41 -13 79q0 126 73 197q72 71 200 71q36 0 72 -13q37 -12 69 -33t55 -39q22 -18 43 -39q21 21 43 39q23 18 55 39t69 33q36 13 72 13q128 0 200 -71q73 -71 73 -197t-131 -257l-356 -343
q-10 -10 -25 -10v0z" />
    <glyph glyph-name="uniE001" unicode="&#xe001;" 
d="M1024 766q-28 -13 -58.5 -21.5t-62.5 -11.5q33 19 57 49t36 67q-31 -18 -64.5 -31t-69.5 -20q-28 30 -68 48t-85 18q-44 0 -82 -16.5t-66.5 -45t-45 -66.5t-16.5 -82q0 -12 1.5 -24t3.5 -24q-65 3 -126.5 20t-116.5 45.5t-103 67.5t-87 87q-13 -24 -20.5 -50.5
t-7.5 -55.5q0 -55 25.5 -101t67.5 -74q-26 1 -50 8t-45 18v-1v-1q0 -77 48.5 -134.5t120.5 -71.5q-14 -4 -27.5 -6t-28.5 -2q-10 0 -20 1t-19 3q20 -62 73.5 -103t122.5 -43q-54 -42 -120.5 -66t-140.5 -24q-13 0 -25.5 1t-24.5 2q35 -22 73 -39.5t78.5 -29.5t83.5 -18.5
t87 -6.5q145 0 256.5 54.5t187.5 140.5t115 192.5t39 210.5q0 6 -0.5 13t-0.5 14q31 22 57.5 49.5t47.5 59.5v0z" />
    <glyph glyph-name="uniE002" unicode="&#xe002;" 
d="M576 -64h-192v512h-128v176l128 1v103q0 108 40.5 170t167.5 62h142v-176h-89q-49 0 -59 -18.5t-10 -52.5v-88h159l-19 -177h-140v-512v0z" />
    <glyph glyph-name="uniE003" unicode="&#xe003;" 
d="M928 832h-832q-40 0 -68 -28t-28 -68v-640q0 -40 28 -68t68 -28h832q40 0 68 28t28 68v640q0 40 -28 68t-68 28zM399 410l-271 -211v501zM176 704h672l-336 -252l-336 252v0zM409 398l103 -110l103 110l210 -270h-626zM625 410l271 290v-501l-271 211v0z" />
    <glyph glyph-name="uniE004" unicode="&#xe004;" 
d="M928 960h-289q-39 0 -87.5 -20t-76.5 -48l-447 -447q-28 -28 -28 -68t28 -68l345 -345q28 -28 68 -28t68 28l447 447q28 28 48 76.5t20 87.5v289q0 39 -28.5 67.5t-67.5 28.5v0zM800 640q-40 0 -68 28t-28 68t28 68t68 28t68 -28t28 -68t-28 -68t-68 -28z" />
    <glyph glyph-name="uniE005" unicode="&#xe005;" 
d="M1024 563l-354 51l-158 321l-158 -321l-354 -51l256 -250l-60 -352l316 166l316 -166l-60 352l256 250v0z" />
    <glyph glyph-name="uniE006" unicode="&#xe006;" 
d="M1024 563l-354 51l-158 321l-158 -321l-354 -51l256 -250l-60 -352l316 166l316 -166l-60 352l256 250v0zM512 207l-223 -118l42 249l-181 176l250 36l112 227l112 -227l250 -36l-181 -176l42 -249l-223 118v0z" />
    <glyph glyph-name="uniE008" unicode="&#xe008;" 
d="M136 209q-56 0 -96 -40t-40 -96t40 -96t96 -40q57 0 97 40t40 96t-40 96t-97 40v0zM0 612v-196q48 0 94 -9.5t89 -27t82.5 -44t73.5 -60.5t60 -73t43.5 -82t27 -89.5t9.5 -94.5h197q0 140 -53 263t-145 215t-215 145t-263 53v0zM0 960v-196q171 0 321.5 -65.5t263 -177.5
t177.5 -263t65 -322h197q0 212 -80.5 398.5t-219.5 325.5t-325.5 219.5t-398.5 80.5v0z" />
    <glyph glyph-name="uniE009" unicode="&#xe009;" horiz-adv-x="640" 
d="M546 866q-47 47 -106 70.5t-120 23.5t-120 -23.5t-106 -70.5t-70.5 -106t-23.5 -120t23.5 -120t70.5 -106l35 -39t77.5 -104.5t78 -152t35.5 -182.5q0 96 35.5 182.5t78 152t77.5 104.5l35 39q47 47 70.5 106t23.5 120t-23.5 120t-70.5 106zM320 512q-53 0 -90.5 37.5
t-37.5 90.5t37.5 90.5t90.5 37.5t90.5 -37.5t37.5 -90.5t-37.5 -90.5t-90.5 -37.5z" />
    <glyph glyph-name="uniE00A" unicode="&#xe00a;" 
d="M864 832l-480 -480l-224 224l-160 -160l384 -384l640 640z" />
    <glyph glyph-name="uniE00C" unicode="&#xe00c;" 
d="M992 576h-352v352q0 13 -9.5 22.5t-22.5 9.5h-192q-13 0 -22.5 -9.5t-9.5 -22.5v-352h-352q-13 0 -22.5 -9.5t-9.5 -22.5v-192q0 -13 9.5 -22.5t22.5 -9.5h352v-352q0 -13 9.5 -22.5t22.5 -9.5h192q13 0 22.5 9.5t9.5 22.5v352h352q13 0 22.5 9.5t9.5 22.5v192
q0 13 -9.5 22.5t-22.5 9.5z" />
    <glyph glyph-name="uniE00E" unicode="&#xe00e;" 
d="M512 868q103 0 134.5 -0.5t72.5 -2.5q37 -2 59 -7.5t36 -10.5q18 -7 31.5 -16t27.5 -22q13 -13 22 -27t16 -32q5 -13 10.5 -35t7.5 -60q1 -40 2 -72t1 -135q0 -102 -1 -134t-2 -72q-2 -38 -7.5 -60t-10.5 -35q-7 -18 -16 -32t-22 -27q-14 -14 -27.5 -23t-31.5 -16
q-14 -5 -36 -10.5t-59 -6.5q-41 -2 -72.5 -2.5t-134.5 -0.5q-102 0 -134 0.5t-73 2.5q-37 1 -59 6.5t-36 10.5q-17 7 -31 16t-27 23q-14 13 -23 27t-16 31q-5 14 -10.5 36t-6.5 59q-2 41 -2.5 73t-0.5 134q0 103 0.5 135t2.5 72q1 37 6.5 59t10.5 36q7 18 16 31.5t22 27.5
q14 13 27.5 22t31.5 16q14 5 36 10.5t59 7.5q41 2 72.5 2.5t134.5 0.5v0zM512 960q-104 0 -137 -0.5t-74 -2.5t-70.5 -8t-53.5 -16q-26 -10 -48 -24t-43 -35t-35 -43t-24 -48q-10 -24 -16 -53.5t-8 -70.5t-2.5 -74t-0.5 -137t0.5 -137t2.5 -74t8 -70.5t16 -53.5
q10 -26 24 -48t35 -43t43 -35t48 -24q24 -9 53.5 -15.5t70.5 -8.5t74 -2.5t137 -0.5t137 0.5t74 2.5t70.5 8.5t53.5 15.5q25 10 47 24t44 35q21 21 35 43t24 48q9 24 15.5 53.5t7.5 70.5q2 41 2.5 74t0.5 137t-0.5 137t-2.5 74q-1 41 -7.5 70.5t-15.5 53.5q-10 25 -24 47.5
t-35 43.5t-43 35t-48 24q-24 9 -53.5 15.5t-70.5 8.5t-74 2.5t-137 0.5v0v0zM512 711q-54 0 -102 -20.5t-84 -56.5t-56.5 -84t-20.5 -102t20.5 -102t56.5 -84t84 -56.5t102 -20.5t102 20.5t84 56.5t56.5 84t20.5 102t-20.5 102t-56.5 84t-84 56.5t-102 20.5zM512 277
q-71 0 -121 50t-50 121t50 121t121 50t121 -50t50 -121t-50 -121t-121 -50zM847 721q0 -25 -18 -43t-44 -18q-25 0 -43 18t-18 43q0 26 18 44t43 18q26 0 44 -18t18 -44z" />
    <glyph glyph-name="uniE010" unicode="&#xe010;" 
d="M512 960q-106 0 -199.5 -40t-163 -109.5t-109.5 -163t-40 -199.5t40 -199.5t109.5 -163t163 -109.5t199.5 -40t199.5 40t163 109.5t109.5 163t40 199.5t-40 199.5t-109.5 163t-163 109.5t-199.5 40zM562 276q-35 3 -55.5 17.5t-47.5 31.5q-15 -79 -39 -149t-78 -110
q-8 60 -3.5 112.5t15 102t24 96.5t23.5 94q-17 28 -16.5 65.5t14 68.5t39.5 48t60 4q43 -17 35 -62.5t-23.5 -95.5t-18 -92t50.5 -53q56 -11 94 29t55 100t10 123.5t-42 98.5q-50 51 -116 55t-123.5 -26.5t-93 -88t-23.5 -130.5q6 -35 26.5 -56.5t-7.5 -70.5
q-63 14 -86 61.5t-21 114.5q2 55 25 101t59 80.5t81.5 55.5t93.5 26q60 7 116.5 -3.5t101.5 -37.5t75.5 -69.5t38.5 -98.5q8 -64 -4.5 -127.5t-44.5 -112.5t-81.5 -78t-113.5 -24v0z" />
    <glyph glyph-name="uniE011" unicode="&#xe011;" 
d="M975 382q2 16 3.5 31.5t1.5 32.5q0 96 -37 181.5t-101 149t-149.5 100t-182.5 36.5q-20 0 -39 -1.5t-37 -4.5q-33 22 -72 34t-81 12q-59 0 -110 -22t-89 -60.5t-60 -89.5t-22 -109q0 -42 12 -81t33 -72q-3 -18 -4.5 -36.5t-1.5 -36.5q0 -97 37 -182.5t101 -149
t149.5 -100t183.5 -36.5q22 0 43 2t42 6q32 -20 70 -31.5t78 -11.5q59 0 110 22t89 60.5t60 89.5t22 109q0 44 -13 84t-36 74v0zM553 101q-112 -6 -173.5 17t-109.5 68q-54 51 -41 98t57 50q43 3 72 -34t52 -52q23 -14 94 -29.5t117 37.5q51 58 -7 89.5t-121 40.5
q-44 7 -91.5 22.5t-85.5 41t-60.5 61.5t-18.5 83q9 95 70.5 144t137.5 56q96 9 162 -12.5t115 -63.5q58 -49 40.5 -94t-53.5 -49q-37 -5 -83.5 51t-126.5 57q-82 2 -116 -60.5t68 -86.5q51 -13 102 -23.5t96 -28t80.5 -45.5t55.5 -74q19 -47 6.5 -93t-46.5 -83t-84.5 -61
t-107.5 -27v0z" />
    <glyph glyph-name="uniE012" unicode="&#xe012;" 
d="M1001 71l-185 185q38 54 59 119t21 137q0 92 -35 174t-96 142.5t-142.5 96t-174.5 35.5q-92 0 -174 -35.5t-142.5 -96t-96 -142.5t-35.5 -174q0 -93 35.5 -174.5t96 -142.5t142.5 -96t174 -35q72 0 137 21t119 59l185 -185q23 -23 56 -23t56 23t23 56t-23 56zM448 192
q-66 0 -124.5 25t-101.5 68.5t-68.5 101.5t-25.5 125q0 66 25.5 124t68.5 101.5t101.5 69t124.5 25.5q67 0 125 -25.5t101.5 -69t68.5 -101.5t25 -124q0 -67 -25 -125t-68.5 -101.5t-101.5 -68.5t-125 -25v0z" />
    <glyph glyph-name="uniE013" unicode="&#xe013;" 
d="M766 734q-5 -8 -52 -54t-149 -85q-47 87 -91 150.5t-52 73.5q22 6 44.5 8.5t45.5 2.5q73 0 138 -25.5t116 -70.5v0zM539 444q-74 -24 -131 -64.5t-96 -80.5t-60 -71t-24 -36q-46 50 -72.5 116t-26.5 139v6t1 6q6 0 41.5 0.5t89.5 5.5t122 16t140 33q8 -17 16 -33t15 -32
q-4 -1 -8 -2.5t-7 -2.5zM512 960q-106 0 -199.5 -40t-163 -109.5t-109.5 -163t-40 -199.5t40 -199.5t109.5 -163t163 -109.5t199.5 -40t199.5 40t163 109.5t109.5 163t40 199.5t-40 199.5t-109.5 163t-163 109.5t-199.5 40zM512 0q-93 0 -174.5 35.5t-142 96t-96 142
t-35.5 174.5t35.5 174.5t96 142t142 96t174.5 35.5t174.5 -35.5t142 -96t96 -142t35.5 -174.5t-35.5 -174.5t-96 -142t-142 -96t-174.5 -35.5zM620 483q-6 14 -12.5 28t-12.5 28q106 43 156.5 92.5t56.5 57.5q40 -48 63 -109t24 -129q-5 1 -29.5 5.5t-61 8t-82.5 4t-94 -5.5
l-4 10l-4 10v0zM491 572q-67 -17 -128 -27t-109 -14t-79 -4.5t-38 -0.5q10 44 29 84.5t46.5 75t62 62t74.5 46.5q8 -11 51.5 -74t90.5 -148v0zM577 385h1.5h1.5q20 -52 34.5 -99t24 -85.5t15 -65.5t7.5 -40q-34 -15 -71.5 -22.5t-77.5 -7.5q-66 0 -126 21.5t-109 59.5
l19.5 32.5t52 64t91.5 75t137 67.5v0zM651 403q90 14 159.5 0.5t79.5 -16.5q-13 -80 -56.5 -146.5t-107.5 -110.5q-3 18 -20 94t-55 179v0z" />
    <glyph glyph-name="uniE015" unicode="&#xe015;" 
d="M1024 960v-416l-160 160l-192 -192l-96 96l192 192l-160 160h416zM448 288l-192 -192l160 -160h-416v416l160 -160l192 192z" />
    <glyph glyph-name="uniE016" unicode="&#xe016;" 
d="M852 960h-680q-71 0 -121.5 -50.5t-50.5 -121.5v-680q0 -71 50.5 -121.5t121.5 -50.5h680q71 0 121.5 50.5t50.5 121.5v680q0 71 -50.5 121.5t-121.5 50.5zM384 128h-128v448h128v-448zM320 640q-27 0 -45.5 18.5t-18.5 45.5t18.5 45.5t45.5 18.5t45.5 -18.5t18.5 -45.5
t-18.5 -45.5t-45.5 -18.5zM832 128h-128v256q0 27 -18.5 45.5t-45.5 18.5t-45.5 -18.5t-18.5 -45.5v-256h-128v448h128v-79q20 27 49 53t63 26q60 0 102 -47t42 -113v-288z" />
    <glyph glyph-name="uniE017" unicode="&#xe017;" 
d="M949 885q-37 37 -84.5 56t-96.5 19t-96.5 -19t-84.5 -56l-586 -586l-1 -363h362l587 587q37 38 56 85t19 96t-19 96t-56 85v0zM308 64h-181v182q37 38 90 38t91 -38q37 -37 37 -91t-37 -91zM856 614l-181 180q38 38 91 38t90 -38q38 -37 38 -90t-38 -90z" />
    <glyph glyph-name="uniE018" unicode="&#xe018;" 
d="M832 832h-640q-79 0 -135.5 -56.5t-56.5 -135.5v-384q0 -79 56.5 -135.5t135.5 -56.5h640q79 0 135.5 56.5t56.5 135.5v384q0 79 -56.5 135.5t-135.5 56.5zM384 192v512l320 -256z" />
    <glyph glyph-name="uniE019" unicode="&#xe019;" 
d="M800 544q-53 0 -90.5 -37.5t-37.5 -90.5t37.5 -90.5t90.5 -37.5t90.5 37.5t37.5 90.5t-37.5 90.5t-90.5 37.5zM800 640v0q46 0 87 -17.5t71.5 -48t48 -71.5t17.5 -87t-17.5 -87t-48 -71.5t-71.5 -48t-87 -17.5t-87 17.5t-71.5 48t-48 71.5t-17.5 87t17.5 87t48 71.5
t71.5 48t87 17.5zM0 416q0 -46 17.5 -87t48 -71.5t71.5 -48t87 -17.5t87 17.5t71.5 48t48 71.5t17.5 87t-17.5 87t-48 71.5t-71.5 48t-87 17.5t-87 -17.5t-71.5 -48t-48 -71.5t-17.5 -87z" />
    <glyph glyph-name="uniE01A" unicode="&#xe01a;" 
d="M659 211l-211 210v283h128v-229l173 -174zM512 960q-106 0 -199.5 -40t-163 -109.5t-109.5 -163t-40 -199.5t40 -199.5t109.5 -163t163 -109.5t199.5 -40t199.5 40t163 109.5t109.5 163t40 199.5t-40 199.5t-109.5 163t-163 109.5t-199.5 40zM512 64q-80 0 -149.5 30
t-122 82.5t-82.5 122t-30 149.5t30 149.5t82.5 122t122 82.5t149.5 30t149.5 -30t122 -82.5t82.5 -122t30 -149.5t-30 -149.5t-82.5 -122t-122 -82.5t-149.5 -30z" />
    <glyph glyph-name="uniE600" unicode="&#xe600;" 
d="M736 320q-48 -48 -64 -88t-64 -40t-96 40t-96 88t-88 96t-40 96t40 64t88 64q24 24 6 67t-54 85t-78 73t-66 31t-57 -30t-63 -66t-51 -66l-21 -30q0 -48 22.5 -116.5t59 -141t82 -140t92.5 -114.5t114.5 -92.5t140 -82t141 -59t116.5 -22.5l30 21t66 51t66 63t30 57
t-31 66t-73 78t-85 54t-67 -6z" />
    <glyph glyph-name="uniE601" unicode="&#xe601;" horiz-adv-x="1317" 
d="M795 296v0l-1 1q-8 10 -19 21l-36 33q-25 22 -54 35q-28 14 -54 14q-28 0 -48 -12q-20 -13 -29 -31q-9 -19 -13 -34t-4 -27v0v0q0 -12 4 -27q4 -16 13 -34t29 -31q20 -12 48 -12q26 0 54 14q29 13 54 35t36 33q10 11 19 21zM1202 296q0 12 -4 27t-13 34q-10 18 -30 31
q-20 12 -47 12q-26 0 -55 -14q-28 -13 -53 -35t-36 -33q-10 -11 -19 -21l-1 -1l1 -1q8 -10 19 -21t36 -33t53 -35q29 -14 55 -14q27 0 47 12q20 13 30 31q9 18 13 34q4 15 4 27v0zM1317 298q0 -40 -14 -79t-39 -72t-66 -53q-41 -21 -91 -21q-39 0 -77 14q-37 14 -65 33
q-27 20 -48 40t-34 34q-13 13 -14 13q-2 0 -13 -13q-11 -14 -31 -34q-20 -19 -47 -39t-66 -34t-82 -14q-37 0 -70 13q-34 13 -55 31q-22 18 -38 38q-17 20 -24 34t-7 18q0 -4 -5 -15q-5 -10 -14 -26q-10 -15 -27 -31t-39 -30t-56 -23q-33 -9 -71 -9q-41 0 -74 9
q-34 9 -57 23q-22 13 -40 32q-18 18 -27 36q-10 18 -16 36q-6 19 -8 31q-2 13 -2 21h124q0 -31 28 -61t72 -30q45 0 77 38t32 85q0 45 -30 78q-30 32 -79 32h-7q-5 -1 -18 -3q-13 -3 -25 -7q-11 -4 -24 -14q-12 -10 -19 -23h-112l59 333h344v-99h-255q-15 -91 -23 -142
q2 0 9 7q8 8 18 17q11 9 38 16q26 7 61 7q36 0 65 -11q30 -12 48 -29q17 -16 29 -33t18 -29q5 -11 6 -11t7 14q7 14 21 35q14 20 35 40q20 21 55 35q35 15 76 15t81 -15q39 -14 66 -34q26 -21 47 -41q21 -21 33 -35q11 -14 12 -14t12 14q12 14 32 35q21 20 48 40
q27 21 66 35q39 15 80 15q52 0 94 -20q41 -20 66 -54q24 -33 37 -71t13 -78v0z" />
    <glyph glyph-name="uniE602" unicode="&#xe602;" horiz-adv-x="1097" 
d="M1095 654q14 -37 -85 -168q-14 -19 -37 -49q-45 -57 -52 -75q-10 -23 8 -46q10 -12 46 -47h1l2 -2q81 -75 109 -126q2 -3 4 -8q2 -4 4 -15t0 -19q-2 -9 -14 -16t-34 -7l-146 -2q-14 -3 -32 3q-19 5 -30 12l-12 7q-17 12 -40 37q-22 24 -39 44q-16 20 -35 33q-18 13 -32 9
l-4 -2q-3 -2 -10 -8q-7 -7 -12 -17q-6 -10 -10 -30t-4 -44q0 -9 -2 -16t-4 -11l-2 -2q-11 -11 -31 -13h-65q-41 -2 -84 9q-43 12 -75 31q-32 18 -59 37q-26 20 -40 33l-14 14q-6 6 -16 17q-10 12 -41 52q-31 41 -61 86q-29 46 -70 121q-40 75 -74 155q-4 10 -4 16t2 9l2 3
q9 11 33 11l157 1q6 -1 13 -3q6 -3 9 -5l3 -2q9 -6 13 -18q12 -29 27 -59q15 -31 23 -47l9 -16q17 -35 32 -60q16 -25 28 -39t24 -22q11 -8 19 -8t16 3q1 0 2 3q2 2 7 12q5 11 8 27q3 17 5 46q3 30 0 72q-1 23 -5 42q-4 18 -8 26l-3 7q-14 19 -49 24q-7 1 3 14q10 11 22 17
q30 15 136 14q47 -1 78 -8q11 -2 19 -7q7 -5 11 -14t6 -18q2 -10 2 -26v-32q-1 -15 -2 -40v-47q0 -6 -1 -24t0 -28q0 -9 2 -23q1 -13 6 -22t13 -14l10 -2t15 6q9 7 21 20q12 12 30 38t39 61q34 60 61 129q2 6 6 10q3 4 6 6l2 2l3 1v0l8 2q7 2 11 0l165 1q22 3 36 -1
q15 -4 18 -10z" />
    <glyph glyph-name="uniE603" unicode="&#xe603;" 
d="M576 512v-234q0 -45 0.5 -71.5t5.5 -39.5q4 -12 15 -24t24 -20q17 -10 36 -15t41 -5q39 0 67.5 7.5t66.5 32.5v-154q-33 -15 -62 -24.5t-55 -16.5q-27 -6 -55.5 -9t-59.5 -3q-36 0 -60 4.5t-51 13.5t-50 21.5t-42 28.5q-19 17 -32 34.5t-21 35.5q-7 19 -10.5 45.5
t-3.5 61.5v359h-138v145q30 10 61.5 24t52.5 33q22 18 39 40t30 47q13 26 22 58.5t14 72.5h165v-256h256v-192h-256v0z" />
    <glyph glyph-name="uniE604" unicode="&#xe604;" 
d="M772 640q13 10 26 20.5t25 22.5q25 25 41 55t22 61q6 34 -2.5 64t-29.5 51q-16 17 -38.5 25.5t-48.5 8.5q-37 0 -74.5 -17t-69.5 -48q-49 -50 -79.5 -112.5t-46.5 -111.5q-11 49 -36 109.5t-70 104.5q-24 24 -53 36.5t-59 12.5q-23 0 -45 -8.5t-39 -24.5
q-37 -38 -32.5 -95.5t47.5 -101.5q16 -15 34 -28t37 -24h-217v-256h64v-448h768v448h64v256h-188v0zM674 832q21 21 45.5 32.5t47.5 11.5q8 0 18 -2.5t18 -10.5q20 -19 10.5 -58t-41.5 -71q-33 -33 -74.5 -56t-79.5 -38h-51q14 43 40 96.5t67 95.5zM234 799q-1 7 1 18t11 21
q8 7 17 9.5t16 2.5v0q16 0 32 -7t29 -20q26 -26 46.5 -65.5t34.5 -90.5q0 -2 0.5 -3l1.5 -3q-2 1 -3.5 1t-2.5 1q-51 14 -90.5 34.5t-65.5 45.5q-12 12 -19 26.5t-8 29.5v0zM448 0h-256v416h256v-416zM448 448h-320v128h320v-128zM832 0h-256v416h256v-416zM896 448h-320
v128h320v-128z" />
    <glyph glyph-name="uniE605" unicode="&#xe605;" 
d="M288 832l640 -384l-640 -384v768z" />
    <glyph glyph-name="uniE800" unicode="&#xe800;" 
d="M128 725h768q18 0 30 -12q13 -13 13 -30q0 -18 -13 -31q-12 -12 -30 -12h-768q-18 0 -30 12q-13 13 -13 31q0 17 13 30q12 12 30 12zM128 213h768q18 0 30 -12q13 -13 13 -30q0 -18 -13 -31q-12 -12 -30 -12h-768q-18 0 -30 12q-13 13 -13 31q0 17 13 30q12 12 30 12z
M128 469h768q18 0 30 -12q13 -13 13 -30q0 -18 -13 -31q-12 -12 -30 -12h-768q-18 0 -30 12q-13 13 -13 31q0 17 13 30q12 12 30 12v0z" />
    <glyph glyph-name="uniE900" unicode="&#xe900;" 
d="M996 53q-3 2 -25 15.5t-61 31.5t-92.5 38t-118.5 34q48 60 78.5 133.5t43.5 127.5q9 38 11 90.5t-6.5 110t-29.5 114.5t-57 103q-42 54 -100 81.5t-127 27.5t-127 -28t-100 -81q-36 -46 -57 -103t-29.5 -114.5t-6.5 -110t11 -90.5q13 -54 43.5 -127.5t78.5 -133.5
q-65 -14 -118.5 -34t-92.5 -38t-61 -31.5t-24 -15.5q-18 -11 -25 -31t-1 -40q6 -21 23 -33.5t38 -12.5h896q21 0 38 12.5t23 33.5q6 20 -1 40t-24 31v0zM649 211l-11 -13q-57 -66 -126 -66t-126 66l-10 13q-34 43 -58.5 91.5t-39.5 100.5t-19.5 106t2.5 107q7 51 25 101.5
t49 90t75 64t102 24.5t102 -24.5t75 -64t49 -90t25 -101.5q7 -53 2.5 -107.5t-19.5 -106t-39.5 -100t-57.5 -91.5zM64 0q2 1 22 13.5t56 29t86 35t111 31.5l79 17q22 -14 45 -22t49 -8t49 8t45 22l79 -17q60 -13 110 -31t85.5 -35t56.5 -29t23 -14h-896z" />
    <glyph glyph-name="uniE901" unicode="&#xe901;" 
d="M576 253v53q53 30 90.5 97t37.5 141q0 60 -3 112.5t-21 91.5t-57 61.5t-111 22.5t-111 -22.5t-57 -61.5t-21 -91.5t-3 -112.5q0 -74 37.5 -141t90.5 -97v-53q-81 -6 -151.5 -28.5t-122 -56t-81 -77t-29.5 -91.5h896q0 48 -29.5 91.5t-81 77t-122 56t-151.5 28.5z" />
    <glyph glyph-name="uniE902" unicode="&#xe902;" horiz-adv-x="951" 
d="M485 878q76 0 137 -39q61 -40 93 -110q16 -34 16 -103q0 -27 -5 -109q8 -4 16 -4q10 0 29 8t29 8q17 0 32 -11q15 -10 15 -26q0 -18 -18 -31q-18 -12 -39 -18q-21 -5 -39 -16q-18 -12 -18 -28q0 -8 6 -24q22 -47 59 -86t83 -58q16 -6 45 -13q16 -3 16 -20q0 -40 -125 -59
q-4 -6 -6 -22t-8 -26q-6 -11 -19 -11q-11 0 -35 4q-24 3 -37 3q-21 0 -35 -2q-19 -3 -36 -13q-18 -10 -34 -22q-15 -12 -33 -23q-17 -12 -43 -19q-26 -8 -57 -8q-29 0 -55 8q-25 7 -43 19q-17 11 -33 23q-15 12 -33 22q-17 10 -35 13q-15 2 -36 2q-14 0 -38 -4
q-23 -4 -33 -4q-14 0 -20 10q-6 11 -8 28q-2 16 -6 22q-125 19 -125 59q0 17 16 20q29 7 45 13q45 19 83 58q38 40 58 86q7 16 7 24q0 16 -18 28q-18 11 -39 16q-22 6 -40 18q-18 13 -18 30q0 16 15 26q15 11 31 11q9 0 28 -7q18 -8 30 -8q10 0 18 4q-5 81 -5 109
q0 69 15 103q37 78 99 113q61 35 151 36v0z" />
    <glyph glyph-name="uniE903" unicode="&#xe903;" 
d="M512 768q-41 0 -80.5 -6.5t-77.5 -19.5q-35 -12 -66 -29t-57 -38q-50 -41 -76.5 -91t-26.5 -104q0 -30 8.5 -59.5t24.5 -56.5q17 -29 42.5 -54.5t56.5 -45.5q23 -15 37.5 -38t18.5 -50q2 -9 2.5 -18t1.5 -18q5 4 10.5 9t11.5 11q18 18 41.5 27.5t48.5 9.5h8t8 -1
q16 -2 32 -3t32 -1q41 0 80.5 6.5t77.5 19.5q35 12 66 29t57 38q50 41 76.5 91t26.5 104t-26.5 104t-76.5 91q-26 21 -57 38t-66 29q-38 13 -77.5 19.5t-80.5 6.5v0zM512 896v0q106 0 199.5 -32.5t163 -89t109.5 -132.5t40 -162t-40 -162t-109.5 -132.5t-163 -89
t-199.5 -32.5q-20 0 -40 1.5t-40 3.5q-41 -41 -86 -66.5t-91.5 -40t-94.5 -19.5t-96 -7v27q51 26 89.5 69.5t38.5 95.5q0 7 -0.5 14.5t-1.5 14.5q-44 28 -79 64t-59.5 77t-38 87t-13.5 95q0 86 40 162t109.5 132.5t163 89t199.5 32.5z" />
    <glyph glyph-name="uniE904" unicode="&#xe904;" 
d="M480 259v0q-14 5 -23 17t-9 28q0 20 14 34t34 14t34 -14t14 -34q0 -16 -9 -28t-23 -17v-83q0 -7 -4.5 -11.5t-11.5 -4.5q-6 0 -11 4.5t-5 11.5v83zM256 512v0v0q-40 0 -68 -28t-28 -68v-320q0 -40 28 -68t68 -28h480q40 0 68 28t28 68v320q0 40 -28 68t-68 28v112
q0 50 -19 93.5t-51.5 76t-76 51.5t-93.5 19t-93.5 -19t-76 -51.5t-51.5 -76t-19 -93.5v-112v0zM352 512v112q0 60 42 102t102 42t102 -42t42 -102v-112h-288z" />
    <glyph glyph-name="uniE905" unicode="&#xe905;" horiz-adv-x="1317" 
d="M821 429q0 -119 -50 -212q-49 -92 -141 -145q-92 -52 -211 -52q-85 0 -163 33t-134 89t-89 134t-33 163t33 163q33 77 89 133t134 90q78 33 163 33q163 0 280 -110l-113 -109q-67 64 -167 64q-70 0 -130 -35t-95 -96t-35 -133t35 -133t95 -96q60 -36 130 -36q47 0 87 13
q40 14 65 33q26 20 45 45t28 48q9 22 13 42h-238v144h395q7 -36 7 -70v0zM1317 499v-120h-120v-120h-120v120h-119v120h119v119h120v-119h120z" />
    <glyph glyph-name="uniE906" unicode="&#xe906;" 
d="M951 610q0 47 -12 82q-13 35 -32 56t-46 34q-28 13 -54 18t-56 5t-64 -15t-63 -37t-50 -41q-20 -19 -34 -35q-10 -12 -28 -12t-28 12q-14 16 -34 35q-21 19 -50 41t-63 37t-64 15t-56 -5t-54 -18q-27 -13 -46 -34t-32 -56q-12 -35 -12 -82q0 -96 107 -203l332 -320
l331 320q108 107 108 203v0zM1024 610q0 -126 -131 -257l-356 -343q-10 -10 -25 -10t-25 10l-357 344l-15 15t-32 38q-22 27 -39 55q-17 29 -31 69q-13 41 -13 79q0 126 73 197q72 71 200 71q36 0 72 -13q37 -12 69 -33t55 -39q22 -18 43 -39q21 21 43 39q23 18 55 39t69 33
q36 13 72 13q128 0 200 -71q73 -71 73 -197v0z" />
    <glyph glyph-name="uniE908" unicode="&#xe908;" 
d="M384 32q0 -40 -28 -68t-68 -28t-68 28t-28 68t28 68t68 28t68 -28t28 -68zM1024 32q0 -40 -28 -68t-68 -28t-68 28t-28 68t28 68t68 28t68 -28t28 -68zM1024 448v384h-768q0 27 -18.5 45.5t-45.5 18.5h-192v-64h128l48 -412q-22 -18 -35 -44t-13 -56q0 -53 37.5 -90.5
t90.5 -37.5h768v64h-768q-27 0 -45.5 18.5t-18.5 45.5v0v1z" />
    <glyph glyph-name="uniE909" unicode="&#xe909;" horiz-adv-x="1170" 
d="M1097 512q30 0 52 -21q21 -22 21 -52t-21 -52q-22 -21 -52 -21h-8l-66 -379q-5 -26 -25 -43q-21 -17 -47 -17h-732q-26 0 -46 17q-21 17 -26 43l-65 379h-9q-30 0 -52 21q-21 22 -21 52t21 52q22 21 52 21h1024v0zM277 55q15 1 25 13q10 11 9 26l-18 238q-2 15 -13 25
q-12 10 -27 9t-25 -13t-9 -27l19 -237q1 -15 11 -24q11 -10 25 -10h3v0zM512 91v238q0 15 -11 26t-26 11q-14 0 -25 -11t-11 -26v-238q0 -14 11 -25t25 -11q15 0 26 11t11 25v0zM731 91v238q0 15 -10 26q-11 11 -26 11t-26 -11t-11 -26v-238q0 -14 11 -25t26 -11t26 11
q10 11 10 25v0zM933 89l18 237q1 15 -9 27t-25 13t-26 -9q-12 -10 -13 -25l-19 -238q-1 -15 9 -26q10 -12 25 -13h3q14 0 25 10q10 9 12 24v0zM272 784l-53 -235h-76l58 252q11 50 51 82q40 31 91 31h96q0 15 11 26t25 11h220q15 0 26 -11q10 -11 10 -26h96q51 0 91 -31
q40 -32 51 -82l58 -252h-76l-53 235q-6 25 -26 41q-19 16 -45 16h-96q0 -15 -10 -26q-11 -10 -26 -10h-220q-14 0 -25 10q-11 11 -11 26h-96q-25 0 -45 -16t-26 -41v0z" />
    <glyph glyph-name="uniE90A" unicode="&#xe90a;" 
d="M1004 146l20 -179q2 -16 -9 -28t-28 -12h-950q-17 0 -28 12t-9 28l20 179h984v0zM951 626l49 -443h-976l49 443q2 13 12 23q10 9 25 9h146v-73q0 -30 21 -52q22 -21 52 -21t52 21q21 22 21 52v73h220v-73q0 -30 21 -52q22 -21 52 -21t52 21q21 22 21 52v73h146
q15 0 25 -9q10 -10 12 -23v0zM731 731v-146q0 -15 -10 -26q-11 -10 -26 -10t-26 10q-11 11 -11 26v146q0 61 -43 104q-42 43 -103 43t-103 -43q-43 -43 -43 -104v-146q0 -15 -11 -26q-11 -10 -26 -10t-26 10q-10 11 -10 26v146q0 91 64 156q64 64 155 64t155 -64
q64 -65 64 -156v0z" />
    <glyph glyph-name="uniF0A3" unicode="&#xf0a3;" horiz-adv-x="878" 
d="M786 448l79 -77q17 -16 12 -40q-7 -24 -30 -29l-108 -28l31 -106q7 -23 -11 -40q-17 -18 -40 -11l-106 30l-28 -107q-6 -23 -29 -30q-7 -1 -11 -1q-18 0 -29 13l-77 79l-77 -79q-16 -17 -40 -12q-24 7 -29 30l-28 107l-106 -30q-24 -7 -40 11q-18 17 -11 40l30 106
l-107 28q-23 5 -30 29q-6 24 12 40l78 77l-78 77q-18 16 -12 40q7 24 30 29l107 28l-30 106q-7 23 11 40q16 18 40 11l106 -30l28 107q5 23 29 29q23 7 40 -11l77 -79l77 79q17 17 40 11t29 -29l28 -107l106 30q23 7 40 -11q18 -17 11 -40l-31 -106l108 -28q23 -5 30 -29
q5 -24 -12 -40z" />
    <glyph glyph-name="uniF104" unicode="&#xf104;" horiz-adv-x="382" 
d="M333 686q0 -8 -6 -13l-225 -225l225 -225q6 -5 6 -13q0 -7 -6 -13l-29 -28q-5 -6 -13 -6q-7 0 -13 6l-266 266q-6 6 -6 13t6 13l266 266q6 6 13 6q8 0 13 -6l29 -28q6 -6 6 -13v0z" />
    <glyph glyph-name="uniF105" unicode="&#xf105;" horiz-adv-x="398" 
d="M398 448q0 -7 -6 -13l-266 -266q-6 -6 -13 -6q-8 0 -13 6l-29 28q-6 6 -6 13q0 8 6 13l225 225l-225 225q-6 5 -6 13q0 7 6 13l29 28q5 6 13 6q7 0 13 -6l266 -266q6 -6 6 -13v0z" />
    <glyph glyph-name="uniF106" unicode="&#xf106;" horiz-adv-x="658" 
d="M614 283q0 -7 -5 -13l-29 -28q-6 -6 -13 -6q-8 0 -13 6l-225 224l-224 -224q-6 -6 -14 -6q-7 0 -13 6l-28 28q-6 6 -6 13q0 8 6 14l266 266q6 6 13 6q8 0 13 -6l267 -266q5 -6 5 -14v0z" />
    <glyph glyph-name="uniF107" unicode="&#xf107;" horiz-adv-x="658" 
d="M614 539q0 -7 -5 -13l-267 -266q-5 -6 -13 -6q-7 0 -13 6l-266 266q-6 6 -6 13q0 8 6 14l28 28q6 6 13 6q8 0 14 -6l224 -224l225 224q5 6 13 6q7 0 13 -6l29 -28q5 -6 5 -14v0z" />
  </font>
</defs>
</svg>
